# xmcd CD database file
# Copyright (C) 1996 Ti Kan
#
# Track frame offsets:
# 	150
# 	16385
# 	31040
# 	45047
# 	58692
# 	76835
# 	100545
# 	121647
# 	144742
# 	169302
# 	186677
# 	210042
# 	234097
# 	250997
#
# Disc length: 3542 seconds
#
# Revision: 1
# Processed by: cddbd v1.4b41PL1 Copyright (c) Steve Scherf et al.
# Submitted via: DiscPlay 3.4.1
#
DISCID=a20dd40e
DTITLE=Various Artist - MINING FOR THE GOLD
DYEAR=1900
DGENRE=
TTITLE0=BLACK COFFEE by Lacy J Dalton
TTITLE1=Where Did We Go Right by Lacy J Dalton
TTITLE2=Ain't No Question by Lacy Dalton
TTITLE3=Honky Tonk Blues by The Pirates of the Mississippi
TTITLE4=Feed Jake by The Pirates of the Mississippi
TTITLE5=Jolly Roger by The Pirates of the Mississippi
TTITLE6=Save Your Love by Tracie Spencer
TTITLE7=This House by Tracie Spencer
TTITLE8=Tender Kisses by Tracie Spencer
TTITLE9=Soldier of Love by Donnie Osmond
TTITLE10=Sacred Emotion by Donnie Osmond
TTITLE11=Faces in the Mirror by Donnie Osmond
TTITLE12=Set Me Free by Times 2
TTITLE13=Sweet Jane's Revenge by Times 2
EXTD=
EXTT0=
EXTT1=
EXTT2=
EXTT3=
EXTT4=
EXTT5=
EXTT6=
EXTT7=
EXTT8=
EXTT9=
EXTT10=
EXTT11=
EXTT12=
EXTT13=
PLAYORDER=
